# xmcd
#
# Track frame offsets: 
#        182
#        14200
#        26360
#        36467
#        49215
#        61682
#        74522
#        88982
#        103330
#        116277
#        128450
#        139355
#        151397
#        162095
#        172502
#        183770
#        196425
#        208475
#        219247
#        230162
#
# Disc length: 3238 seconds
#
# Revision: 3
# Processed by: cddbd v1.5.2PL0 Copyright (c) Steve Scherf et al.
# Submitted via: ExactAudioCopyFreeDBPlugin 1.0
#
DISCID=210ca414
DTITLE=Jimmy Reed - Bright Lights, Big City (His Greatest Hits) - Char
DTITLE=ly Blues Masterworks Vol.17
DYEAR=1999
DGENRE=Blues
TTITLE0=You Don't Have To Go
TTITLE1=I Don't Go For That
TTITLE2=Ain't That Lovin' You Baby
TTITLE3=Can't Stand To See You Go
TTITLE4=I Love You Baby
TTITLE5=You've Got Me Dizzy
TTITLE6=Honey, Where You Going
TTITLE7=Little Rain
TTITLE8=The Sun Is Shining
TTITLE9=Honest I Do
TTITLE10=Down In Virginia
TTITLE11=I'm Gonna Get My Baby
TTITLE12=Baby What You Want Me To Do
TTITLE13=Found Love
TTITLE14=Hush Hush
TTITLE15=Big Boss Man
TTITLE16=Bright Lights, Big City
TTITLE17=Aw Shucks, Hush Your Mouth
TTITLE18=Good Lover
TTITLE19=Shame, Shame, Shame
EXTD=YEAR: 1999 ID3G:   0
EXTT0=
EXTT1=
EXTT2=
EXTT3=
EXTT4=
EXTT5=
EXTT6=
EXTT7=
EXTT8=
EXTT9=
EXTT10=
EXTT11=
EXTT12=
EXTT13=
EXTT14=
EXTT15=
EXTT16=
EXTT17=
EXTT18=
EXTT19=
PLAYORDER=
